<?xml version="1.0" encoding="UTF-8"?>
<svg id="_图层_1" xmlns="http://www.w3.org/2000/svg" viewBox="0 0 37.74 37.74">
  <defs>
    <style>
      .cls-1 {
        fill: #fff;
      }
    </style>
  </defs>
  <path class="cls-1" d="M20.6,21.9s0,0-.02.01l-7.06,4.07c-.24.14-.54.06-.68-.18h.03c-.04-.09-.07-.17-.07-.26v-9.02l.02-2.98c0-.18.09-.34.25-.43l1.85-1.07c.23-.14.53-.07.67.17,0,0,0,.01,0,.02.04.08.07.16.07.25v5.77h.01v2.43c0,.09.03.18.07.25.14.24.44.32.68.18l1.85-1.07c.16-.09.35-.09.51,0l1.8,1c.07.05.13.11.18.19.14.23.07.53-.17.67Z"/>
  <path class="cls-1" d="M12.29,15.48v8.17c0,.28-.24.5-.52.5-.08,0-.16-.02-.23-.06l-1.86-1.08c-.07-.05-.13-.11-.18-.19v-.03c-.04-.08-.07-.16-.07-.25v-5.99c.02-.18.11-.34.26-.43l1.86-1.07c.24-.14.54-.06.68.18.05.08.07.16.06.25Z"/>
  <path class="cls-1" d="M27.6,17.52v2.14c0,.27-.21.49-.48.5h-.02c-.09,0-.17-.02-.25-.06l-5-2.87-2.11-1.21c-.07-.05-.16-.07-.25-.07-.28,0-.5.22-.5.5v2.14c0,.18-.09.35-.25.44l-1.77,1.06c-.08.04-.16.06-.25.06-.27,0-.49-.21-.5-.48v-8.17c0-.28.22-.5.5-.5.09,0,.17.02.25.06l7.81,4.52,2.57,1.51c.15.09.25.25.25.43Z"/>
  <path class="cls-1" d="M27,13.23v2.15c0,.28-.22.5-.5.5-.09,0-.18-.02-.25-.07l-2.11-1.22-2.85-1.64-2.11-1.22c-.24-.15-.32-.46-.17-.7.04-.07.1-.13.17-.17l1.86-1.07c.08-.04.16-.06.25-.06h.04c.09,0,.17.02.25.06l2.6,1.51,2.57,1.5c.15.09.25.25.25.43Z"/>
  <path class="cls-1" d="M27.58,21.71c-.05.08-.11.14-.18.19l-7.82,4.5-2.59,1.47c-.15.09-.34.09-.5,0l-1.85-1.07c-.24-.13-.32-.42-.2-.66,0,0,.01-.01.01-.02.05-.08.11-.14.18-.19l4.99-2.89,2.1-1.22c.08-.04.14-.11.19-.19.14-.24.05-.54-.19-.68l-1.85-1.07c-.16-.09-.26-.25-.26-.43l-.03-2.07c.01-.09.03-.17.07-.24.14-.24.43-.32.67-.2,0,0,.01.01.02.01l7.05,4.08c.25.14.33.44.19.68Z"/>
  <path class="cls-1" d="M26.82,23.71v2.15c-.02.09-.04.17-.08.25l-.03.02c-.05.07-.1.14-.18.18l-2.61,1.51-2.58,1.49c-.17.07-.35.07-.5-.01l-1.86-1.08c-.24-.14-.32-.44-.18-.68.04-.08.1-.14.18-.17l2.12-1.22,2.85-1.65,2.11-1.22c.24-.14.55-.04.69.2.04.07.06.15.07.23Z"/>
</svg>