<?xml version="1.0" encoding="UTF-8"?>
<svg id="_图层_1" xmlns="http://www.w3.org/2000/svg" viewBox="0 0 37.74 37.74">
  <defs>
    <style>
      .cls-1 {
        fill: #012bad;
      }

      .cls-2 {
        fill: #fff;
      }

      .cls-3 {
        fill: #449dbf;
      }

      .cls-4 {
        fill: #66d5c8;
      }
    </style>
  </defs>
  <g>
    <path class="cls-1" d="M27.14,20.4c-.13,0-.26-.03-.38-.1l-7.06-4.08s-.09-.01-.13,0c-.14,0-.25.11-.25.25v2.14c0,.27-.14.52-.37.65l-1.86,1.07c-.11.07-.24.1-.37.1-.19,0-.38-.07-.52-.21-.15-.14-.23-.34-.23-.54v-8.18c0-.41.34-.75.75-.75.13,0,.26.03.37.1l10.42,6c.23.14.37.38.38.65v2.14c0,.41-.33.75-.74.76h-.01Z"/>
    <path class="cls-2" d="M16.72,11c.09,0,.17.02.25.06l7.81,4.52h0l2.57,1.51c.15.09.25.25.25.43v2.14c0,.27-.21.49-.48.5h-.02c-.09,0-.17-.02-.25-.06l-5-2.87h0l-2.11-1.21c-.07-.05-.16-.07-.25-.07-.28,0-.5.22-.5.5v2.14c0,.18-.09.35-.25.44l-1.77,1.06c-.08.04-.16.06-.25.06-.27,0-.49-.21-.5-.48v-8.17c0-.28.22-.5.5-.5M16.72,10.5h0c-.55,0-1,.45-1,1v8.15c0,.55.45,1,1,1,.18,0,.35-.04.5-.13l1.85-1.07c.31-.18.5-.51.5-.87v-2.14l2.11,1.22,5,2.86c.15.09.32.13.5.13.55,0,1-.45,1-1v-2.14c0-.36-.19-.68-.5-.86l-2.61-1.51-4-2.33-3.85-2.18c-.15-.09-.32-.13-.5-.13Z"/>
  </g>
  <g>
    <path class="cls-3" d="M26.54,16.13c-.13,0-.26-.04-.38-.1l-7.06-4.08c-.24-.13-.38-.38-.38-.65s.14-.52.38-.65l1.85-1.07c.12-.07.25-.1.38-.1s.26.03.37.1l5.21,3c.23.13.38.37.38.64v2.15c0,.42-.33.75-.75.76Z"/>
    <path class="cls-2" d="M21.33,9.73c.09,0,.17.02.25.06l2.6,1.51h0l2.57,1.5c.15.09.25.25.25.43v2.15c0,.28-.22.5-.5.5-.09,0-.18-.02-.25-.07l-2.11-1.22h0l-2.85-1.64-2.11-1.22c-.24-.15-.32-.46-.17-.7.04-.07.1-.13.17-.17l1.86-1.07c.08-.04.16-.06.25-.06M21.29,9.23c-.18,0-.35.04-.5.13l-1.86,1.07c-.31.18-.5.51-.5.87s.19.68.5.86l2.11,1.22,2.85,1.65,2.15,1.19c.15.09.32.14.5.14.55,0,1-.45,1-1v-2.14c0-.36-.19-.68-.5-.86l-2.61-1.51-2.6-1.5c-.15-.09-.32-.13-.5-.13h-.04,0Z"/>
  </g>
  <g>
    <path class="cls-3" d="M15.8,12.07c.07.11.1.25.1.38v8.15s.03.08.06.11c.07.12.22.16.34.09l1.85-1.07c.23-.14.52-.14.75,0l1.86,1.08c.11.06.21.16.27.27.1.17.13.37.08.56-.05.2-.17.37-.35.47l-7.08,4.09c-.36.21-.82.08-1.02-.27-.07-.11-.1-.24-.1-.37v-12.02c0-.27.13-.51.36-.65l1.85-1.07c.36-.21.82-.1,1.03.26h0Z"/>
    <path class="cls-2" d="M12.87,25.79c-.04-.08-.07-.16-.07-.25v-9.02h0l.02-2.98c0-.18.09-.34.25-.43l1.85-1.07c.23-.14.53-.07.67.17,0,0,0,.01.01.02.04.08.07.16.07.25v5.77h.01v2.43c0,.09.03.18.07.25.14.24.44.32.68.18l1.85-1.07c.16-.09.35-.09.51,0l1.8,1c.07.05.13.11.18.19.14.23.07.53-.17.67,0,0-.01,0-.02.01l-7.06,4.07c-.24.14-.54.06-.68-.18M12.44,26.04h0c.28.48.89.64,1.37.37l7.06-4.07c.48-.28.64-.89.37-1.37-.09-.15-.21-.28-.36-.37l-1.85-1.07c-.31-.18-.69-.18-1,0l-1.85,1.07v-2.44l-.02-5.76c0-.18-.05-.35-.14-.5-.28-.48-.89-.64-1.37-.37l-1.85,1.07c-.31.18-.49.51-.49.86v3.02l-.02,4.63.04,4.42c0,.18.05.35.14.5h-.03Z"/>
  </g>
  <g>
    <path class="cls-4" d="M12.44,15.08c.06.12.1.25.1.38v8.15c0,.27-.14.52-.38.65-.23.14-.52.14-.75,0l-1.85-1.07c-.12-.07-.21-.16-.28-.28-.07-.11-.1-.24-.1-.37v-6.01c0-.27.13-.51.36-.65l1.86-1.07c.36-.21.82-.09,1.03.27h.01Z"/>
    <path class="cls-2" d="M9.5,22.79c-.04-.08-.07-.16-.07-.25v-3.01h0v-2.98c.02-.18.11-.34.26-.43l1.86-1.07c.24-.14.54-.06.68.18.05.08.07.16.06.25v2.44h0v5.73c0,.28-.24.5-.52.5-.08,0-.16-.02-.23-.06l-1.86-1.08c-.07-.05-.13-.11-.18-.19M9.09,23.07c.09.15.21.28.36.37l1.86,1.08c.31.18.69.18,1,0s.49-.51.49-.86v-5.73l-.04-2.46c0-.18-.04-.35-.13-.5-.28-.48-.89-.64-1.37-.37l-1.85,1.07c-.31.18-.49.51-.49.86v6.02c0,.18.05.35.14.5l.03.03h0Z"/>
  </g>
  <g>
    <path class="cls-4" d="M14.23,26.03c.06-.11.16-.21.28-.28l7.06-4.07s.05-.07.06-.11c.07-.12.03-.27-.09-.34l-1.85-1.07c-.23-.14-.38-.38-.38-.65v-2.15c0-.13.04-.26.1-.37.1-.16.25-.29.44-.35.2-.06.41-.03.58.07l7.08,4.09c.36.2.48.67.27,1.02-.06.11-.16.21-.27.27l-10.41,6.02c-.24.13-.51.13-.75,0l-1.85-1.07c-.36-.2-.48-.66-.29-1.02h0Z"/>
    <path class="cls-2" d="M27.58,21.71c-.05.08-.1.14-.18.19l-7.82,4.5h0l-2.59,1.47c-.15.08-.34.09-.5,0l-1.85-1.07c-.23-.14-.32-.43-.19-.67v-.02c.06-.08.11-.14.19-.19l4.99-2.9h0l2.1-1.22c.08-.04.14-.1.19-.18.14-.24.06-.54-.18-.68l-1.85-1.07c-.16-.09-.26-.25-.26-.44l-.03-2.06c0-.09.03-.17.07-.25.14-.23.43-.32.67-.19h.02s7.06,4.09,7.06,4.09c.24.14.32.44.18.68M28.01,21.96h0c.27-.48.11-1.09-.37-1.37l-7.06-4.07c-.48-.28-1.09-.11-1.37.37-.09.16-.14.32-.14.5v2.14c0,.36.19.69.51.87l1.85,1.07-2.11,1.22-4.98,2.9c-.15.08-.27.21-.36.37-.27.48-.11,1.09.37,1.37l1.85,1.07c.31.18.68.18.99,0l2.61-1.51,4.02-2.3,3.81-2.24c.15-.08.27-.21.36-.37Z"/>
  </g>
  <g>
    <path class="cls-1" d="M18.56,27.44c.07-.11.17-.21.28-.28l7.06-4.07c.23-.14.52-.14.75,0,.24.13.38.38.37.65v2.14c0,.14-.04.26-.1.38-.06.12-.16.21-.27.27l-5.2,3.01c-.23.14-.51.14-.74.01l-1.86-1.08c-.36-.21-.49-.67-.28-1.03h0Z"/>
    <path class="cls-2" d="M26.71,26.13c-.05.07-.1.14-.18.19l-2.61,1.51h0l-2.58,1.49c-.17.07-.35.07-.5-.01l-1.86-1.08c-.24-.14-.32-.44-.18-.68.04-.08.1-.14.19-.18l2.11-1.22h0l2.85-1.64,2.11-1.22c.24-.14.55-.04.69.2.04.07.06.15.06.23v2.15c-.01.09-.04.17-.08.25M27.16,26.34c.08-.15.14-.32.14-.5v-2.15c0-.36-.18-.69-.49-.87s-.69-.17-.99,0l-2.11,1.22-2.85,1.64-2.11,1.26c-.16.09-.28.21-.37.36-.28.48-.11,1.09.36,1.37l1.85,1.07c.31.18.69.17.99,0l2.62-1.51,2.6-1.5c.16-.09.28-.22.36-.37v-.04s0,0,0,0Z"/>
  </g>
</svg>